<?xml version="1.0" encoding="utf-8"?>
<!-- Generator: Adobe Illustrator 23.0.1, SVG Export Plug-In . SVG Version: 6.00 Build 0)  -->
<svg version="1.1" id="Layer_1" xmlns="http://www.w3.org/2000/svg" xmlns:xlink="http://www.w3.org/1999/xlink" x="0px" y="0px"
	 viewBox="0 0 16 16" style="enable-background:new 0 0 16 16;" xml:space="preserve">
<style type="text/css">
	.st0{fill:#F0981B;}
</style>
<g>
	<g>
		<g>
			<path class="st0" d="M0.8,11.9c0.3,0.7,1,1.5,1.1,1.6c-0.2,0.3-0.5,0.4-0.5,0.4S0.7,12.7,0.8,11.9z"/>
		</g>
		<path class="st0" d="M0.4,12.1c0.2,0.7,0.9,1.6,1,1.7c-0.2,0.3-0.5,0.3-0.5,0.3S0.3,12.9,0.4,12.1z"/>
		<path class="st0" d="M16,1.8c0,0-4.3,1.1-5.1,2.4C9.1,3.9,6.1,4.4,6.1,4.4S5.8,2.4,6,1.8c-4.8,2.3-5.8,7.3-6,10l0,0
			c0,0,1.4-0.7,2.7,0.1c0.1,0-0.9,1.7-1.9,2.1c0,0,0.1,0,0.1,0c1,0,3.1-0.9,4-1.7c3.2-2.5,2.8-4.3,2.8-4.3S6.2,10.5,5.1,9
			c-0.9-1.2,1.8-3.8,6.5-3C14.3,6.5,16,7.7,16,7.7l-2.6-2.8L16,1.8z M2.7,10.7C2.5,11,2.2,11,2,10.9c-0.3-0.2,0.2-1.3,0.9-1.4
			C2.9,9.5,2.9,10.4,2.7,10.7z M4.6,7.9c0,0,0.2-1.3-1.1-2.3C5,6.1,5.1,7,4.6,7.9z M5,7.3c0,0,0.2-1.1-0.9-1.9
			C5.3,5.9,5.5,6.6,5,7.3z M5.4,6.8c0,0,0.1-0.8-0.8-1.5C5.7,5.6,5.8,6.2,5.4,6.8z M5.8,6.3c0,0,0.1-0.6-0.6-1.1
			C5.9,5.4,6,5.8,5.8,6.3z"/>
	</g>
</g>
</svg>
