<?xml version="1.0" encoding="UTF-8"?><svg xmlns="http://www.w3.org/2000/svg" xmlns:xlink="http://www.w3.org/1999/xlink"><symbol viewBox="0 0 16 16" id="icon-1-column" xmlns="http://www.w3.org/2000/svg"><rect x="1" y="1" width="14" height="6" rx="1"/><rect x="1" y="9" width="14" height="6" rx="1"/></symbol><symbol viewBox="0 0 16 16" id="icon-2-column" xmlns="http://www.w3.org/2000/svg"><rect x="1" y="1" width="6" height="6" rx="1"/><rect x="1" y="9" width="6" height="6" rx="1"/><rect x="9" y="1" width="6" height="6" rx="1"/><rect x="9" y="9" width="6" height="6" rx="1"/></symbol><symbol viewBox="0 0 16 16" id="icon-3-column" xmlns="http://www.w3.org/2000/svg"><rect x="1.5" y="9" width="3" height="6" rx="1"/><rect x="1.5" y="1" width="3" height="6" rx="1"/><rect x="6.5" y="9" width="3" height="6" rx="1"/><rect x="6.5" y="1" width="3" height="6" rx="1"/><rect x="11.5" y="9" width="3" height="6" rx="1"/><rect x="11.5" y="1" width="3" height="6" rx="1"/></symbol><symbol viewBox="0 0 16 16" id="icon-4-column" xmlns="http://www.w3.org/2000/svg"><rect x="1" y="1" width="2" height="6" rx="1"/><rect x="1" y="9" width="2" height="6" rx="1"/><rect x="5" y="1" width="2" height="6" rx="1"/><rect x="5" y="9" width="2" height="6" rx="1"/><rect x="9" y="1" width="2" height="6" rx="1"/><rect x="9" y="9" width="2" height="6" rx="1"/><rect x="13" y="1" width="2" height="6" rx="1"/><rect x="13" y="9" width="2" height="6" rx="1"/></symbol><symbol viewBox="0 0 16 16" id="icon-alert" xmlns="http://www.w3.org/2000/svg"><path d="M8.5 1.634A1 1 0 018.866 2l6.268 10.853a1 1 0 01-.866 1.5H1.732a1 1 0 01-.866-1.5L7.134 2A1 1 0 018.5 1.634zM8 10.5A1.25 1.25 0 108 13a1.25 1.25 0 000-2.5zm0-6a1.25 1.25 0 00-1.244 1.122l-.006.128v2.5a1.25 1.25 0 002.494.128l.006-.128v-2.5c0-.69-.56-1.25-1.25-1.25z"/></symbol><symbol viewBox="0 0 16 16" id="icon-cross" xmlns="http://www.w3.org/2000/svg"><path d="M5.172 3.05L8 5.88l2.828-2.83a1 1 0 011.415 0l.707.707a1 1 0 010 1.415L10.12 8l2.829 2.828a1 1 0 010 1.415l-.707.707a1 1 0 01-1.415 0L8 10.12 5.172 12.95a1 1 0 01-1.415 0l-.707-.707a1 1 0 010-1.415L5.88 8 3.05 5.172a1 1 0 010-1.415l.707-.707a1 1 0 011.415 0z"/></symbol><symbol viewBox="0 0 16 16" id="icon-delete" xmlns="http://www.w3.org/2000/svg"><path d="M1.5 4V3a1 1 0 011-1h3a2 2 0 012-2h1a2 2 0 012 2h3a1 1 0 011 1v1h-13zM13.285 5l-.719 10.071a1 1 0 01-.997.929H4.43a1 1 0 01-.997-.929L2.714 5h10.57zM6.5 7h-1v6h1V7zm2 0h-1v6h1V7zm2 0h-1v6h1V7z"/></symbol><symbol viewBox="0 0 16 16" id="icon-deploy" xmlns="http://www.w3.org/2000/svg"><path d="M8.279 13.027l.221 1.544-1.414 1.414-1.25-1.872a39.32 39.32 0 002.443-1.086zM1.429 7.5l1.548.222c-.408.839-.77 1.662-1.086 2.443L.015 8.915 1.429 7.5zM14.527 1.125c.216.002.337.011.337.011s.009.121.011.337v.18c-.009 1.506-.344 5.927-3.812 8.233-2.288 1.523-4.72 2.563-6.465 3.197l-1.681-1.68C3.55 9.657 4.59 7.226 6.114 4.937c2.306-3.468 6.727-3.803 8.233-3.812h.18zM8.5 5.025A1.75 1.75 0 1010.975 7.5 1.75 1.75 0 008.5 5.025zM2.122 12.437l1.444 1.444C1.57 15.144.137 15.865.137 15.865s.722-1.432 1.985-3.428z"/></symbol><symbol viewBox="0 0 16 16" id="icon-direction" xmlns="http://www.w3.org/2000/svg"><rect x="6.5" y="1" width="3" height="13" rx="1"/><path d="M8.707 15.364a.995.995 0 01-.53.277l-.118.014h-.118a.996.996 0 01-.648-.291L1.636 9.707a1 1 0 010-1.414l.707-.707a1 1 0 011.414 0L8 11.828l4.243-4.242a1 1 0 011.414 0l.707.707a1 1 0 010 1.414l-5.657 5.657z"/></symbol><symbol viewBox="0 0 16 16" id="icon-global" xmlns="http://www.w3.org/2000/svg"><path d="M14.062 11.5a7.027 7.027 0 01-3.828 3.135c.581-.784 1.054-1.866 1.363-3.135h2.465zM11.8 10.5c.13-.787.2-1.627.2-2.5 0-.874-.07-1.715-.2-2.503h2.739C14.837 6.274 15 7.118 15 8c0 .88-.163 1.723-.46 2.5H11.8zM14.06 4.497h-2.463c-.31-1.268-.782-2.349-1.363-3.132a7.028 7.028 0 013.827 3.132zM4.403 11.5c.31 1.27.782 2.35 1.363 3.135A7.027 7.027 0 011.938 11.5h2.465zM4.2 5.497C4.07 6.285 4 7.126 4 8c0 .873.07 1.713.2 2.5H1.46A6.978 6.978 0 011 8c0-.882.163-1.726.462-2.503H4.2zM1.94 4.497a7.027 7.027 0 013.826-3.132c-.58.783-1.053 1.864-1.363 3.132H1.94zM10.598 11.5C10.08 13.592 9.11 15 8 15c-1.11 0-2.08-1.408-2.598-3.5h5.196zM5.197 10.5A15.508 15.508 0 015 8c0-.882.07-1.726.198-2.503h5.604C10.93 6.274 11 7.118 11 8c0 .88-.07 1.723-.197 2.5H5.197zM10.597 4.497H5.403C5.922 2.407 6.89 1 8 1s2.078 1.407 2.597 3.497z"/></symbol><symbol viewBox="0 0 16 16" id="icon-help" xmlns="http://www.w3.org/2000/svg"><path d="M8.96 10.34V8.9a4.79 4.79 0 001.34-.44 3.865 3.865 0 001.88-2.02c.187-.453.28-.96.28-1.52 0-.613-.11-1.173-.33-1.68a3.607 3.607 0 00-.95-1.3A4.463 4.463 0 009.7 1.1C9.127.9 8.493.8 7.8.8c-.68 0-1.277.093-1.79.28-.513.187-.953.43-1.32.73-.367.3-.663.64-.89 1.02-.227.38-.4.77-.52 1.17l2.44 1.02c.12-.493.35-.9.69-1.22.34-.32.77-.48 1.29-.48.48 0 .87.133 1.17.4.3.267.45.653.45 1.16v.28c0 .747-.263 1.277-.79 1.59-.527.313-1.317.49-2.37.53v3.06h2.8zm-1.36 4.9c.64 0 1.097-.147 1.37-.44.273-.293.41-.653.41-1.08v-.48c0-.427-.137-.787-.41-1.08-.273-.293-.73-.44-1.37-.44-.64 0-1.097.147-1.37.44-.273.293-.41.653-.41 1.08v.48c0 .427.137.787.41 1.08.273.293.73.44 1.37.44z"/></symbol><symbol viewBox="0 0 16 16" id="icon-menu-arrow" xmlns="http://www.w3.org/2000/svg"><path d="M11.743 7.207a1 1 0 010 1.414l-4.95 4.95a1 1 0 01-1.414 0l-.707-.707a1 1 0 010-1.414l3.534-3.536L4.672 4.38a1 1 0 010-1.415l.707-.707a1 1 0 011.414 0L11.035 6.5l.708.708z"/></symbol><symbol viewBox="0 0 16 16" id="icon-menu-toggle" xmlns="http://www.w3.org/2000/svg"><circle cx="8" cy="8" r="2"/><circle cx="14" cy="8" r="2"/><circle cx="2" cy="8" r="2"/></symbol><symbol viewBox="0 0 16 16" id="icon-page" xmlns="http://www.w3.org/2000/svg"><path d="M8 0v5a1 1 0 00.883.993L9 6h5v9a1 1 0 01-1 1H3a1 1 0 01-1-1V1a1 1 0 011-1h5zm4 12H4v1h8v-1zm0-2H4v1h8v-1zm0-2H4v1h8V8z"/><path d="M9 0l5 5H9.5a.5.5 0 01-.5-.5V0z"/></symbol><symbol viewBox="0 0 16 16" id="icon-page-rotation" xmlns="http://www.w3.org/2000/svg"><path d="M12.76 7a.5.5 0 01-.467-.349h.001a4.502 4.502 0 00-7.49-1.82L4.648 5 6.5 5a1 1 0 110 2h-4a1 1 0 01-1-1V2a1 1 0 112 0v1.31A6.503 6.503 0 0114.302 6.4a.5.5 0 01-.492.6h-1.05zM3.24 9a.5.5 0 01.467.349h-.001a4.502 4.502 0 007.49 1.82l.157-.168L9.5 11a1 1 0 010-2h4a1 1 0 011 1v4a1 1 0 11-2 0v-1.31A6.503 6.503 0 011.698 9.6.5.5 0 012.19 9h1.05z"/></symbol><symbol viewBox="0 0 16 16" id="icon-page-rotation-paused" xmlns="http://www.w3.org/2000/svg"><path d="M2.5 1a1 1 0 011 1v1.31A6.478 6.478 0 018 1.5c.682 0 1.34.105 1.958.3L8.25 3.507A4.486 4.486 0 004.805 4.83L4.647 5 6.5 5c.08 0 .157.01.231.027L4.757 7H2.5a1 1 0 01-1-1V2a1 1 0 011-1zM13.5 9a1 1 0 011 1v4a1 1 0 01-2 0v-1.31A6.478 6.478 0 018 14.5c-.682 0-1.34-.105-1.957-.3l1.708-1.707a4.486 4.486 0 003.444-1.324l.158-.168L9.5 11c-.079 0-.156-.01-.23-.026L11.243 9H13.5z"/><rect transform="rotate(45 8 8)" x="6.75" y="-2" width="2.5" height="20" rx="1"/></symbol><symbol viewBox="0 0 16 16" id="icon-pause" xmlns="http://www.w3.org/2000/svg"><rect x="3" y="1" width="4" height="14" rx="1"/><rect x="9" y="1" width="4" height="14" rx="1"/></symbol><symbol viewBox="0 0 16 16" id="icon-pencil" xmlns="http://www.w3.org/2000/svg"><path d="M3.414 6.95L6.95 3.414l8.07 8.071L15 15l-3.515.02-8.07-8.07zM.586 2.707L2.707.586a1 1 0 011.414 0L5.536 2 2 5.536.586 4.12a1 1 0 010-1.414z"/></symbol><symbol viewBox="0 0 16 16" id="icon-play" xmlns="http://www.w3.org/2000/svg"><path d="M12.024 8.78l-7.4 5.92A1 1 0 013 13.92V2.08a1 1 0 011.625-.78l7.399 5.92a1 1 0 010 1.56z"/></symbol><symbol viewBox="0 0 16 16" id="icon-plus" xmlns="http://www.w3.org/2000/svg"><path d="M8.5 1.5a1 1 0 011 1v4h4a1 1 0 011 1v1a1 1 0 01-1 1h-4v4a1 1 0 01-1 1h-1a1 1 0 01-1-1v-4h-4a1 1 0 01-1-1v-1a1 1 0 011-1h4v-4a1 1 0 011-1h1z"/></symbol><symbol viewBox="0 0 16 16" id="icon-reset" xmlns="http://www.w3.org/2000/svg"><path d="M2.5 1a1 1 0 011 1v1.31A6.5 6.5 0 111.577 9h2.035A4.502 4.502 0 0012.5 8a4.5 4.5 0 00-7.854-3L3.5 4.999V5h3a1 1 0 110 2h-4a1 1 0 01-1-1V2a1 1 0 011-1z"/></symbol><symbol viewBox="0 0 16 16" id="icon-tick" xmlns="http://www.w3.org/2000/svg"><path d="M14.142 2.707l.707.707a1 1 0 010 1.414l-7.77 7.77a1.02 1.02 0 01-.008.009l-.707.707a.995.995 0 01-.53.277l-.118.014h-.118a.996.996 0 01-.648-.291L.707 9.07a1 1 0 010-1.414l.707-.707a1 1 0 011.414 0l2.829 2.828 7.07-7.07a1 1 0 011.415 0z"/></symbol><symbol viewBox="0 0 16 16" id="icon-toggle" xmlns="http://www.w3.org/2000/svg"><path d="M14.743 7.207a1 1 0 010 1.414l-4.95 4.95a1 1 0 01-1.414 0l-.707-.707a1 1 0 010-1.414l3.534-3.536L7.672 4.38a1 1 0 010-1.415l.707-.707a1 1 0 011.414 0L14.035 6.5l.708.708z"/><path d="M8.778 7.207a1 1 0 010 1.414l-4.95 4.95a1 1 0 01-1.414 0l-.707-.707a1 1 0 010-1.414l3.535-3.536L1.707 4.38a1 1 0 010-1.415l.707-.707a1 1 0 011.414 0L8.07 6.5l.708.708z"/></symbol></svg>